STARTFONT 2.1
COMMENT
COMMENT Converted from OpenType font "ChicagoFLF.ttf" by "otf2bdf 3.0".
COMMENT
FONT -FreeType-ChicagoFLF-Medium-R-Normal--21-200-75-75-P-99-ISO10646-1
SIZE 20 75 75
FONTBOUNDINGBOX 23 25 0 -4
STARTPROPERTIES 19
FOUNDRY "FreeType"
FAMILY_NAME "ChicagoFLF"
WEIGHT_NAME "Medium"
SLANT "R"
SETWIDTH_NAME "Normal"
ADD_STYLE_NAME ""
PIXEL_SIZE 21
POINT_SIZE 200
RESOLUTION_X 75
RESOLUTION_Y 75
SPACING "P"
AVERAGE_WIDTH 99
CHARSET_REGISTRY "ISO10646"
CHARSET_ENCODING "1"
FONT_ASCENT 20
FONT_DESCENT 4
COPYRIGHT "4.1 (c)1990-92 by Richard A. Ware. All Rights Reserved."
_OTF_FONTFILE "ChicagoFLF.ttf"
_OTF_PSNAME "ChicagoFLF"
ENDPROPERTIES
CHARS 252
STARTCHAR 0005
ENCODING 5
SWIDTH 528 0
DWIDTH 11 0
BBX 9 3 1 14
BITMAP
4380
FF00
3E00
ENDCHAR
STARTCHAR 0006
ENCODING 6
SWIDTH 336 0
DWIDTH 7 0
BBX 3 4 2 14
BITMAP
E0
E0
E0
E0
ENDCHAR
STARTCHAR 0008
ENCODING 8
SWIDTH 432 0
DWIDTH 9 0
BBX 7 6 1 14
BITMAP
78
CC
C6
C6
CC
78
ENDCHAR
STARTCHAR 000A
ENCODING 10
SWIDTH 432 0
DWIDTH 9 0
BBX 6 4 2 14
BITMAP
4C
C8
D8
98
ENDCHAR
STARTCHAR 000B
ENCODING 11
SWIDTH 336 0
DWIDTH 7 0
BBX 4 4 2 -4
BITMAP
C0
C0
F0
70
ENDCHAR
STARTCHAR 000C
ENCODING 12
SWIDTH 528 0
DWIDTH 11 0
BBX 8 4 2 14
BITMAP
C7
6C
38
10
ENDCHAR
STARTCHAR 000D
ENCODING 13
SWIDTH 336 0
DWIDTH 7 0
BBX 3 12 2 0
BITMAP
E0
E0
E0
E0
E0
E0
E0
E0
E0
E0
E0
E0
ENDCHAR
STARTCHAR 0019
ENCODING 25
SWIDTH 720 0
DWIDTH 15 0
BBX 14 18 1 -1
BITMAP
000C
0018
0030
0030
0060
00C0
00C0
0180
0300
0300
0600
0C00
1C00
1800
3000
6000
6000
C000
ENDCHAR
STARTCHAR 001A
ENCODING 26
SWIDTH 816 0
DWIDTH 17 0
BBX 13 16 2 0
BITMAP
3FB8
3FB8
7800
7800
FE38
FE38
7838
7838
7838
7838
7838
7838
7838
7838
7838
7838
ENDCHAR
STARTCHAR 001B
ENCODING 27
SWIDTH 768 0
DWIDTH 16 0
BBX 12 16 2 0
BITMAP
3FF0
3FF0
78F0
78F0
FEF0
FEF0
78F0
78F0
78F0
78F0
78F0
78F0
78F0
78F0
78F0
78F0
ENDCHAR
STARTCHAR 001C
ENCODING 28
SWIDTH 576 0
DWIDTH 12 0
BBX 11 16 0 0
BITMAP
3800
3800
3800
3800
3900
3900
3B00
3E00
3C00
3800
7800
F800
B800
B800
3FE0
3FE0
ENDCHAR
STARTCHAR 001D
ENCODING 29
SWIDTH 336 0
DWIDTH 7 0
BBX 7 16 0 0
BITMAP
38
38
38
38
38
3A
3A
3E
3C
38
78
F8
B8
B8
38
38
ENDCHAR
STARTCHAR 001E
ENCODING 30
SWIDTH 672 0
DWIDTH 14 0
BBX 10 20 2 0
BITMAP
0180
3B00
0E00
0400
FFC0
FFC0
01C0
01C0
01C0
0180
0300
0E00
1C00
3800
7000
E000
E000
E000
FFC0
FFC0
ENDCHAR
STARTCHAR 001F
ENCODING 31
SWIDTH 672 0
DWIDTH 14 0
BBX 10 18 2 0
BITMAP
71C0
1B00
0E00
0400
0000
0000
FFC0
01C0
03C0
0780
0F00
1E00
3C00
7800
F000
E000
FFC0
FFC0
ENDCHAR
STARTCHAR 0020
ENCODING 32
SWIDTH 336 0
DWIDTH 7 0
BBX 0 0 0 0
BITMAP
ENDCHAR
STARTCHAR 0021
ENCODING 33
SWIDTH 528 0
DWIDTH 11 0
BBX 4 16 3 0
BITMAP
F0
F0
F0
F0
F0
F0
F0
F0
F0
F0
F0
00
F0
F0
F0
F0
ENDCHAR
STARTCHAR 0022
ENCODING 34
SWIDTH 576 0
DWIDTH 12 0
BBX 6 5 3 11
BITMAP
CC
CC
CC
CC
CC
ENDCHAR
STARTCHAR 0023
ENCODING 35
SWIDTH 768 0
DWIDTH 16 0
BBX 12 13 2 3
BITMAP
0C60
0C40
0840
7FF0
7FF0
1880
1080
3180
FFE0
2100
2300
6300
6200
ENDCHAR
STARTCHAR 0024
ENCODING 36
SWIDTH 576 0
DWIDTH 12 0
BBX 9 20 2 -2
BITMAP
1800
1800
3C00
FF00
DB00
D900
F880
F800
F800
7C00
3F00
1F80
1F80
1B80
D900
D900
FF00
7E00
1800
1800
ENDCHAR
STARTCHAR 0025
ENCODING 37
SWIDTH 864 0
DWIDTH 18 0
BBX 14 16 2 0
BITMAP
3FF0
FFE0
8CC0
84C0
CD80
7980
0300
0300
0600
0600
0E78
0CCC
1C8C
188C
18D8
3070
ENDCHAR
STARTCHAR 0026
ENCODING 38
SWIDTH 864 0
DWIDTH 18 0
BBX 14 16 2 0
BITMAP
7F80
FFC0
E1C0
E1CC
E1CC
F80C
7818
E1F8
E1E0
E1C0
E1C0
E1C0
E1C0
E1C0
7F80
3F00
ENDCHAR
STARTCHAR 0027
ENCODING 39
SWIDTH 240 0
DWIDTH 5 0
BBX 2 4 2 12
BITMAP
C0
C0
C0
C0
ENDCHAR
STARTCHAR 0028
ENCODING 40
SWIDTH 432 0
DWIDTH 9 0
BBX 5 19 2 -2
BITMAP
18
38
60
E0
E0
E0
E0
E0
E0
E0
E0
E0
E0
E0
E0
E0
E0
60
38
ENDCHAR
STARTCHAR 0029
ENCODING 41
SWIDTH 432 0
DWIDTH 9 0
BBX 5 19 2 -2
BITMAP
C0
E0
30
38
38
38
38
38
38
38
38
38
38
38
38
38
30
20
C0
ENDCHAR
STARTCHAR 002A
ENCODING 42
SWIDTH 624 0
DWIDTH 13 0
BBX 10 11 1 6
BITMAP
0C00
0C00
4C40
7DC0
BF80
1E00
3F80
FDC0
4C40
0C00
0C00
ENDCHAR
STARTCHAR 002B
ENCODING 43
SWIDTH 624 0
DWIDTH 13 0
BBX 9 9 2 3
BITMAP
1800
1800
1800
F800
FF80
1800
1800
1800
1800
ENDCHAR
STARTCHAR 002C
ENCODING 44
SWIDTH 336 0
DWIDTH 7 0
BBX 3 8 2 -4
BITMAP
E0
E0
E0
E0
60
60
E0
C0
ENDCHAR
STARTCHAR 002D
ENCODING 45
SWIDTH 576 0
DWIDTH 12 0
BBX 9 2 2 7
BITMAP
FF80
FF80
ENDCHAR
STARTCHAR 002E
ENCODING 46
SWIDTH 336 0
DWIDTH 7 0
BBX 3 4 2 0
BITMAP
E0
E0
E0
E0
ENDCHAR
STARTCHAR 002F
ENCODING 47
SWIDTH 576 0
DWIDTH 12 0
BBX 9 17 2 0
BITMAP
0180
0300
0300
0600
0600
0400
0C00
0800
1800
1800
3000
3000
2000
6000
6000
C000
C000
ENDCHAR
STARTCHAR 0030
ENCODING 48
SWIDTH 672 0
DWIDTH 14 0
BBX 10 16 2 0
BITMAP
3F00
FFC0
E1C0
E1C0
E1C0
E1C0
E1C0
E1C0
E1C0
E1C0
E1C0
E1C0
E1C0
E1C0
7F80
3F00
ENDCHAR
STARTCHAR 0031
ENCODING 49
SWIDTH 672 0
DWIDTH 14 0
BBX 6 16 3 0
BITMAP
3C
7C
FC
BC
3C
3C
3C
3C
3C
3C
3C
3C
3C
3C
3C
3C
ENDCHAR
STARTCHAR 0032
ENCODING 50
SWIDTH 672 0
DWIDTH 14 0
BBX 10 16 2 0
BITMAP
3F00
FF80
C1C0
81C0
01C0
01C0
03C0
0780
0F00
1E00
1C00
3800
7000
E000
FFC0
FFC0
ENDCHAR
STARTCHAR 0033
ENCODING 51
SWIDTH 672 0
DWIDTH 14 0
BBX 10 16 2 0
BITMAP
FFC0
FFC0
0780
0F00
1E00
3F00
3F80
01C0
01C0
01C0
01C0
01C0
81C0
C1C0
7F80
3F00
ENDCHAR
STARTCHAR 0034
ENCODING 52
SWIDTH 672 0
DWIDTH 14 0
BBX 12 16 2 0
BITMAP
03C0
07C0
0FC0
1DC0
39C0
71C0
E1C0
C1C0
C1C0
FFF0
FFF0
01C0
01C0
01C0
01C0
01C0
ENDCHAR
STARTCHAR 0035
ENCODING 53
SWIDTH 672 0
DWIDTH 14 0
BBX 10 16 2 0
BITMAP
FFC0
FFC0
E000
E000
E000
E000
FF80
01C0
01C0
01C0
01C0
01C0
81C0
C1C0
7F80
3F00
ENDCHAR
STARTCHAR 0036
ENCODING 54
SWIDTH 672 0
DWIDTH 14 0
BBX 10 16 2 0
BITMAP
0F80
1F80
3C00
3800
7000
E000
FF80
E1C0
E1C0
E1C0
E1C0
E1C0
E1C0
E1C0
FFC0
3F00
ENDCHAR
STARTCHAR 0037
ENCODING 55
SWIDTH 672 0
DWIDTH 14 0
BBX 10 16 2 0
BITMAP
FFC0
FFC0
01C0
01C0
01C0
01C0
01C0
0380
0700
0E00
1E00
1E00
1E00
1E00
1E00
1E00
ENDCHAR
STARTCHAR 0038
ENCODING 56
SWIDTH 672 0
DWIDTH 14 0
BBX 10 16 2 0
BITMAP
7F80
FFC0
E1C0
E1C0
E1C0
E1C0
E1C0
7F80
7F80
E1C0
E1C0
E1C0
E1C0
E1C0
7F80
3F00
ENDCHAR
STARTCHAR 0039
ENCODING 57
SWIDTH 672 0
DWIDTH 14 0
BBX 10 16 2 0
BITMAP
7F80
FFC0
E1C0
E1C0
E1C0
E1C0
E1C0
E1C0
E1C0
7FC0
1FC0
0380
0700
0E00
7C00
7C00
ENDCHAR
STARTCHAR 003A
ENCODING 58
SWIDTH 336 0
DWIDTH 7 0
BBX 3 12 2 0
BITMAP
E0
E0
E0
00
00
00
00
00
E0
E0
E0
E0
ENDCHAR
STARTCHAR 003B
ENCODING 59
SWIDTH 336 0
DWIDTH 7 0
BBX 3 16 2 -4
BITMAP
E0
E0
E0
00
00
00
00
00
E0
E0
E0
E0
60
60
E0
C0
ENDCHAR
STARTCHAR 003C
ENCODING 60
SWIDTH 528 0
DWIDTH 11 0
BBX 9 10 1 3
BITMAP
0780
0E00
1C00
3800
7000
F000
3800
1C00
0E00
0780
ENDCHAR
STARTCHAR 003D
ENCODING 61
SWIDTH 672 0
DWIDTH 14 0
BBX 10 6 2 5
BITMAP
FFC0
FFC0
0000
0000
FFC0
FFC0
ENDCHAR
STARTCHAR 003E
ENCODING 62
SWIDTH 528 0
DWIDTH 11 0
BBX 9 10 1 3
BITMAP
F000
3800
1C00
0E00
0700
0780
0E00
1C00
3800
F000
ENDCHAR
STARTCHAR 003F
ENCODING 63
SWIDTH 672 0
DWIDTH 14 0
BBX 10 16 2 0
BITMAP
3F00
7F80
C1C0
C1C0
01C0
0380
0780
0F00
1E00
1E00
1E00
0000
1E00
1E00
1E00
1E00
ENDCHAR
STARTCHAR 0040
ENCODING 64
SWIDTH 912 0
DWIDTH 19 0
BBX 16 14 2 0
BITMAP
0FE0
7FFC
E00E
C006
C7E3
CC63
CC63
CC63
CC63
CFFE
C7FE
E000
7FF0
3FF0
ENDCHAR
STARTCHAR 0041
ENCODING 65
SWIDTH 672 0
DWIDTH 14 0
BBX 10 16 2 0
BITMAP
3F00
7F80
E1C0
E1C0
E1C0
E1C0
E1C0
FFC0
FFC0
E1C0
E1C0
E1C0
E1C0
E1C0
E1C0
E1C0
ENDCHAR
STARTCHAR 0042
ENCODING 66
SWIDTH 672 0
DWIDTH 14 0
BBX 11 16 2 0
BITMAP
FF00
FFC0
F1C0
F1E0
F1E0
F1E0
F1C0
FFC0
FF80
F1C0
F1E0
F1E0
F1E0
F1C0
FFC0
FF80
ENDCHAR
STARTCHAR 0043
ENCODING 67
SWIDTH 672 0
DWIDTH 14 0
BBX 11 16 2 0
BITMAP
3F80
7FC0
F0C0
F060
F000
F000
F000
F000
F000
F000
F000
F000
F060
F0C0
7FC0
3F80
ENDCHAR
STARTCHAR 0044
ENCODING 68
SWIDTH 672 0
DWIDTH 14 0
BBX 10 16 2 0
BITMAP
FF00
FFC0
E1C0
E1C0
E1C0
E1C0
E1C0
E1C0
E1C0
E1C0
E1C0
E1C0
E1C0
E1C0
FF80
FF00
ENDCHAR
STARTCHAR 0045
ENCODING 69
SWIDTH 576 0
DWIDTH 12 0
BBX 9 16 2 0
BITMAP
FF80
FF80
E000
E000
E000
E000
E000
FE00
FE00
E000
E000
E000
E000
E000
FF80
FF80
ENDCHAR
STARTCHAR 0046
ENCODING 70
SWIDTH 576 0
DWIDTH 12 0
BBX 9 16 2 0
BITMAP
FF80
FF80
E000
E000
E000
E000
E000
FE00
FE00
E000
E000
E000
E000
E000
E000
E000
ENDCHAR
STARTCHAR 0047
ENCODING 71
SWIDTH 672 0
DWIDTH 14 0
BBX 10 16 2 0
BITMAP
3F00
7F80
E0C0
E040
E000
E000
E000
E7C0
E7C0
E1C0
E1C0
E1C0
E1C0
E1C0
FFC0
7F80
ENDCHAR
STARTCHAR 0048
ENCODING 72
SWIDTH 672 0
DWIDTH 14 0
BBX 10 16 2 0
BITMAP
E1C0
E1C0
E1C0
E1C0
E1C0
E1C0
E1C0
FFC0
FFC0
E1C0
E1C0
E1C0
E1C0
E1C0
E1C0
E1C0
ENDCHAR
STARTCHAR 0049
ENCODING 73
SWIDTH 528 0
DWIDTH 11 0
BBX 4 16 3 0
BITMAP
F0
F0
F0
F0
F0
F0
F0
F0
F0
F0
F0
F0
F0
F0
F0
F0
ENDCHAR
STARTCHAR 004A
ENCODING 74
SWIDTH 576 0
DWIDTH 12 0
BBX 11 16 0 0
BITMAP
01E0
01E0
01E0
01E0
01E0
01E0
01E0
01E0
01E0
F1E0
F1E0
F1E0
F1C0
F1C0
7FC0
3F80
ENDCHAR
STARTCHAR 004B
ENCODING 75
SWIDTH 768 0
DWIDTH 16 0
BBX 12 16 2 0
BITMAP
E0F0
E1C0
E380
E700
EE00
FC00
F800
F000
F800
FC00
FE00
EF00
E780
E3C0
E1E0
E0F0
ENDCHAR
STARTCHAR 004C
ENCODING 76
SWIDTH 576 0
DWIDTH 12 0
BBX 9 16 2 0
BITMAP
E000
E000
E000
E000
E000
E000
E000
E000
E000
E000
E000
E000
E000
E000
FF80
FF80
ENDCHAR
STARTCHAR 004D
ENCODING 77
SWIDTH 1008 0
DWIDTH 21 0
BBX 17 16 2 0
BITMAP
800080
C00180
E00380
F00780
F80F80
FC1F80
FE3B80
DF7B80
CFF380
C7E380
C3C380
C18380
C00380
C00380
C00380
C00380
ENDCHAR
STARTCHAR 004E
ENCODING 78
SWIDTH 768 0
DWIDTH 16 0
BBX 12 16 2 0
BITMAP
8030
C030
E030
F030
F830
FC30
FE30
FFB0
DFF0
CFF0
C7F0
C3F0
C1F0
C070
C030
C010
ENDCHAR
STARTCHAR 004F
ENCODING 79
SWIDTH 672 0
DWIDTH 14 0
BBX 10 16 2 0
BITMAP
3F00
FFC0
E1C0
E1C0
E1C0
E1C0
E1C0
E1C0
E1C0
E1C0
E1C0
E1C0
E1C0
E1C0
7F80
3F00
ENDCHAR
STARTCHAR 0050
ENCODING 80
SWIDTH 672 0
DWIDTH 14 0
BBX 10 16 2 0
BITMAP
FF00
FFC0
E1C0
E1C0
E1C0
E1C0
E1C0
FFC0
FF00
E000
E000
E000
E000
E000
E000
E000
ENDCHAR
STARTCHAR 0051
ENCODING 81
SWIDTH 672 0
DWIDTH 14 0
BBX 10 18 2 -2
BITMAP
7F80
FFC0
E1C0
E1C0
E1C0
E1C0
E1C0
E1C0
E1C0
E1C0
E1C0
E1C0
E1C0
E1C0
FFC0
3F00
01C0
01C0
ENDCHAR
STARTCHAR 0052
ENCODING 82
SWIDTH 672 0
DWIDTH 14 0
BBX 10 16 2 0
BITMAP
FF00
FFC0
E1C0
E1C0
E1C0
E1C0
E1C0
FF80
FF80
E1C0
E1C0
E1C0
E1C0
E1C0
E1C0
E1C0
ENDCHAR
STARTCHAR 0053
ENCODING 83
SWIDTH 576 0
DWIDTH 12 0
BBX 8 16 2 0
BITMAP
3E
FF
E3
E1
E0
F0
78
7C
1E
0F
07
07
C7
C7
7F
3E
ENDCHAR
STARTCHAR 0054
ENCODING 84
SWIDTH 528 0
DWIDTH 11 0
BBX 11 16 0 0
BITMAP
FFE0
FFE0
1E00
1E00
1E00
1E00
1E00
1E00
1E00
1E00
1E00
1E00
1E00
1E00
1E00
1E00
ENDCHAR
STARTCHAR 0055
ENCODING 85
SWIDTH 672 0
DWIDTH 14 0
BBX 10 16 2 0
BITMAP
E1C0
E1C0
E1C0
E1C0
E1C0
E1C0
E1C0
E1C0
E1C0
E1C0
E1C0
E1C0
E1C0
E1C0
FFC0
3F00
ENDCHAR
STARTCHAR 0056
ENCODING 86
SWIDTH 672 0
DWIDTH 14 0
BBX 10 16 2 0
BITMAP
E1C0
E1C0
E1C0
E1C0
E1C0
E1C0
E1C0
E1C0
E1C0
E1C0
E1C0
E1C0
E380
E700
FE00
FC00
ENDCHAR
STARTCHAR 0057
ENCODING 87
SWIDTH 1008 0
DWIDTH 21 0
BBX 17 16 2 0
BITMAP
E1C380
E1C380
E1C380
E1C380
E1C380
E1C380
E1C380
E1C380
E1C380
E1C380
E1C380
E1C380
E1C700
E1CE00
FFFC00
FFF800
ENDCHAR
STARTCHAR 0058
ENCODING 88
SWIDTH 672 0
DWIDTH 14 0
BBX 10 16 2 0
BITMAP
E1C0
E1C0
E1C0
E1C0
E1C0
E1C0
E1C0
7F80
7F80
E1C0
E1C0
E1C0
E1C0
E1C0
E1C0
E1C0
ENDCHAR
STARTCHAR 0059
ENCODING 89
SWIDTH 672 0
DWIDTH 14 0
BBX 10 16 2 0
BITMAP
E1C0
E1C0
E1C0
E1C0
E1C0
E1C0
7380
3F00
1E00
1E00
1E00
1E00
1E00
1E00
1E00
1E00
ENDCHAR
STARTCHAR 005A
ENCODING 90
SWIDTH 672 0
DWIDTH 14 0
BBX 10 16 2 0
BITMAP
FFC0
FFC0
01C0
01C0
01C0
0180
0300
0E00
1C00
3800
7000
E000
E000
E000
FFC0
FFC0
ENDCHAR
STARTCHAR 005B
ENCODING 91
SWIDTH 432 0
DWIDTH 9 0
BBX 5 20 2 -3
BITMAP
F8
F8
E0
E0
E0
E0
E0
E0
E0
E0
E0
E0
E0
E0
E0
E0
E0
E0
F8
F8
ENDCHAR
STARTCHAR 005C
ENCODING 92
SWIDTH 624 0
DWIDTH 13 0
BBX 10 19 2 -2
BITMAP
C000
4000
6000
6000
3000
3000
1000
1800
1800
0C00
0C00
0600
0600
0600
0300
0300
0180
0180
01C0
ENDCHAR
STARTCHAR 005D
ENCODING 93
SWIDTH 432 0
DWIDTH 9 0
BBX 5 20 2 -3
BITMAP
F8
F8
78
78
78
78
78
78
78
78
78
78
78
78
78
78
78
78
F8
F8
ENDCHAR
STARTCHAR 005E
ENCODING 94
SWIDTH 672 0
DWIDTH 14 0
BBX 9 5 3 11
BITMAP
0800
1C00
3400
6200
C180
ENDCHAR
STARTCHAR 005F
ENCODING 95
SWIDTH 672 0
DWIDTH 14 0
BBX 14 2 0 0
BITMAP
FFFC
FFFC
ENDCHAR
STARTCHAR 0060
ENCODING 96
SWIDTH 480 0
DWIDTH 10 0
BBX 4 4 3 13
BITMAP
C0
40
60
30
ENDCHAR
STARTCHAR 0061
ENCODING 97
SWIDTH 672 0
DWIDTH 14 0
BBX 10 13 2 -1
BITMAP
7F00
FF80
C1C0
01C0
7FC0
E1C0
E1C0
E1C0
E1C0
E1C0
FFC0
7FC0
1FC0
ENDCHAR
STARTCHAR 0062
ENCODING 98
SWIDTH 672 0
DWIDTH 14 0
BBX 10 16 2 0
BITMAP
E000
E000
E000
E000
FF00
FFC0
E1C0
E1C0
E1C0
E1C0
E1C0
E1C0
E1C0
E1C0
E1C0
FF80
ENDCHAR
STARTCHAR 0063
ENCODING 99
SWIDTH 576 0
DWIDTH 12 0
BBX 9 12 2 0
BITMAP
7E00
E700
E100
E080
E000
E000
E000
E000
E180
E300
7F00
3E00
ENDCHAR
STARTCHAR 0064
ENCODING 100
SWIDTH 672 0
DWIDTH 14 0
BBX 10 16 2 0
BITMAP
01C0
01C0
01C0
01C0
3FC0
7FC0
E1C0
E1C0
E1C0
E1C0
E1C0
E1C0
E1C0
E1C0
E1C0
7FC0
ENDCHAR
STARTCHAR 0065
ENCODING 101
SWIDTH 672 0
DWIDTH 14 0
BBX 10 12 2 0
BITMAP
3F00
E180
E1C0
E1C0
E1C0
FFC0
FFC0
E000
E000
E0C0
FFC0
7F80
ENDCHAR
STARTCHAR 0066
ENCODING 102
SWIDTH 528 0
DWIDTH 11 0
BBX 9 16 2 0
BITMAP
3F80
3F80
7800
7800
FE00
FE00
7800
7800
7800
7800
7800
7800
7800
7800
7800
7800
ENDCHAR
STARTCHAR 0067
ENCODING 103
SWIDTH 672 0
DWIDTH 14 0
BBX 10 16 2 -4
BITMAP
7FC0
E1C0
E1C0
E1C0
E1C0
E1C0
E1C0
E1C0
E1C0
E1C0
7FC0
01C0
01C0
C1C0
FFC0
7F80
ENDCHAR
STARTCHAR 0068
ENCODING 104
SWIDTH 672 0
DWIDTH 14 0
BBX 10 16 2 0
BITMAP
E000
E000
E000
E000
FF80
E1C0
E1C0
E1C0
E1C0
E1C0
E1C0
E1C0
E1C0
E1C0
E1C0
E1C0
ENDCHAR
STARTCHAR 0069
ENCODING 105
SWIDTH 336 0
DWIDTH 7 0
BBX 3 16 2 0
BITMAP
E0
E0
00
00
E0
E0
E0
E0
E0
E0
E0
E0
E0
E0
E0
E0
ENDCHAR
STARTCHAR 006A
ENCODING 106
SWIDTH 528 0
DWIDTH 11 0
BBX 9 20 0 -4
BITMAP
0780
0780
0000
0780
0780
0780
0780
0780
0780
0780
0780
0780
0780
0780
0780
0780
C780
C780
7F00
3E00
ENDCHAR
STARTCHAR 006B
ENCODING 107
SWIDTH 672 0
DWIDTH 14 0
BBX 10 16 2 0
BITMAP
E000
E000
E000
E000
E3C0
E700
EE00
FC00
F800
F000
F800
FC00
FE00
EF00
E780
E3C0
ENDCHAR
STARTCHAR 006C
ENCODING 108
SWIDTH 336 0
DWIDTH 7 0
BBX 3 16 2 0
BITMAP
E0
E0
E0
E0
E0
E0
E0
E0
E0
E0
E0
E0
E0
E0
E0
E0
ENDCHAR
STARTCHAR 006D
ENCODING 109
SWIDTH 1008 0
DWIDTH 21 0
BBX 17 12 2 0
BITMAP
FFFE00
FFFF80
E1C380
E1C380
E1C380
E1C380
E1C380
E1C380
E1C380
E1C380
E1C380
E1C380
ENDCHAR
STARTCHAR 006E
ENCODING 110
SWIDTH 672 0
DWIDTH 14 0
BBX 10 12 2 0
BITMAP
FF00
FFC0
E1C0
E1C0
E1C0
E1C0
E1C0
E1C0
E1C0
E1C0
E1C0
E1C0
ENDCHAR
STARTCHAR 006F
ENCODING 111
SWIDTH 672 0
DWIDTH 14 0
BBX 10 12 2 0
BITMAP
3F00
FFC0
E1C0
E1C0
E1C0
E1C0
E1C0
E1C0
E1C0
E1C0
E1C0
7F80
ENDCHAR
STARTCHAR 0070
ENCODING 112
SWIDTH 672 0
DWIDTH 14 0
BBX 10 16 2 -4
BITMAP
FF00
FFC0
E1C0
E1C0
E1C0
E1C0
E1C0
E1C0
E1C0
E1C0
E1C0
FF80
E000
E000
E000
E000
ENDCHAR
STARTCHAR 0071
ENCODING 113
SWIDTH 672 0
DWIDTH 14 0
BBX 10 16 2 -4
BITMAP
7FC0
E1C0
E1C0
E1C0
E1C0
E1C0
E1C0
E1C0
E1C0
E1C0
7FC0
3FC0
01C0
01C0
01C0
01C0
ENDCHAR
STARTCHAR 0072
ENCODING 114
SWIDTH 528 0
DWIDTH 11 0
BBX 9 12 2 0
BITMAP
E780
FF00
F800
E000
E000
E000
E000
E000
E000
E000
E000
E000
ENDCHAR
STARTCHAR 0073
ENCODING 115
SWIDTH 576 0
DWIDTH 12 0
BBX 8 12 2 0
BITMAP
7E
FF
E3
F1
F8
7C
1E
0F
C7
C7
7F
3E
ENDCHAR
STARTCHAR 0074
ENCODING 116
SWIDTH 480 0
DWIDTH 10 0
BBX 7 17 2 -1
BITMAP
78
78
78
78
FE
FE
78
78
78
78
78
78
78
78
78
3E
1E
ENDCHAR
STARTCHAR 0075
ENCODING 117
SWIDTH 672 0
DWIDTH 14 0
BBX 10 12 2 0
BITMAP
E1C0
E1C0
E1C0
E1C0
E1C0
E1C0
E1C0
E1C0
E1C0
E1C0
FFC0
7FC0
ENDCHAR
STARTCHAR 0076
ENCODING 118
SWIDTH 672 0
DWIDTH 14 0
BBX 10 12 2 0
BITMAP
E1C0
E1C0
E1C0
E1C0
E1C0
E1C0
E1C0
E1C0
E380
E700
FE00
FC00
ENDCHAR
STARTCHAR 0077
ENCODING 119
SWIDTH 1008 0
DWIDTH 21 0
BBX 17 12 2 0
BITMAP
E1C380
E1C380
E1C380
E1C380
E1C380
E1C380
E1C380
E1C380
E1C300
E1C600
FFFC00
FFF800
ENDCHAR
STARTCHAR 0078
ENCODING 120
SWIDTH 672 0
DWIDTH 14 0
BBX 10 12 2 0
BITMAP
E1C0
E1C0
E1C0
E1C0
E1C0
7F80
7F80
E1C0
E1C0
E1C0
E1C0
E1C0
ENDCHAR
STARTCHAR 0079
ENCODING 121
SWIDTH 672 0
DWIDTH 14 0
BBX 10 16 2 -4
BITMAP
E1C0
E1C0
E1C0
E1C0
E1C0
E1C0
E1C0
E1C0
E1C0
E1C0
7FC0
01C0
01C0
C1C0
E1C0
7F80
ENDCHAR
STARTCHAR 007A
ENCODING 122
SWIDTH 672 0
DWIDTH 14 0
BBX 10 13 2 0
BITMAP
FFC0
FFC0
01C0
03C0
0780
0F00
1E00
3C00
7800
F000
E000
FFC0
FFC0
ENDCHAR
STARTCHAR 007B
ENCODING 123
SWIDTH 432 0
DWIDTH 9 0
BBX 5 20 2 -3
BITMAP
18
38
20
60
60
60
60
60
60
C0
60
60
60
60
60
60
20
30
38
18
ENDCHAR
STARTCHAR 007C
ENCODING 124
SWIDTH 432 0
DWIDTH 9 0
BBX 2 19 3 -2
BITMAP
C0
C0
C0
C0
C0
C0
C0
C0
C0
C0
C0
C0
C0
C0
C0
C0
C0
C0
C0
ENDCHAR
STARTCHAR 007D
ENCODING 125
SWIDTH 432 0
DWIDTH 9 0
BBX 5 20 2 -3
BITMAP
80
E0
60
60
60
60
60
60
60
30
18
30
60
60
60
60
60
60
E0
C0
ENDCHAR
STARTCHAR 007E
ENCODING 126
SWIDTH 672 0
DWIDTH 14 0
BBX 10 4 2 9
BITMAP
3040
7CC0
CFC0
C780
ENDCHAR
STARTCHAR 00A1
ENCODING 161
SWIDTH 528 0
DWIDTH 11 0
BBX 3 16 4 -3
BITMAP
E0
E0
E0
E0
00
00
E0
E0
E0
E0
E0
E0
E0
E0
E0
E0
ENDCHAR
STARTCHAR 00A2
ENCODING 162
SWIDTH 576 0
DWIDTH 12 0
BBX 9 14 2 0
BITMAP
1800
3C00
7F00
DB00
D900
D900
D880
D800
D980
D900
FB00
7F00
1800
1800
ENDCHAR
STARTCHAR 00A3
ENCODING 163
SWIDTH 768 0
DWIDTH 16 0
BBX 12 16 2 0
BITMAP
3FC0
3FC0
78C0
7800
7800
7800
7800
FE00
FE00
7800
7800
7800
7830
7830
FFF0
FFE0
ENDCHAR
STARTCHAR 00A4
ENCODING 164
SWIDTH 576 0
DWIDTH 12 0
BBX 9 9 2 3
BITMAP
9900
FF80
4300
C100
C100
C300
6600
FF00
8180
ENDCHAR
STARTCHAR 00A5
ENCODING 165
SWIDTH 864 0
DWIDTH 18 0
BBX 14 16 2 0
BITMAP
F03C
7878
3CF0
1FE0
FFFC
FFFC
0700
0700
FFFC
0700
0700
0700
0700
0700
0700
0700
ENDCHAR
STARTCHAR 00A6
ENCODING 166
SWIDTH 432 0
DWIDTH 9 0
BBX 2 15 3 0
BITMAP
C0
C0
C0
C0
C0
00
00
00
00
00
00
C0
C0
C0
C0
ENDCHAR
STARTCHAR 00A7
ENCODING 167
SWIDTH 576 0
DWIDTH 12 0
BBX 9 21 2 -4
BITMAP
FF00
C380
C180
C000
C000
7000
F800
DC00
8E00
8300
C180
E180
7180
1F00
0F00
0700
0300
0180
C180
E300
FF00
ENDCHAR
STARTCHAR 00A8
ENCODING 168
SWIDTH 528 0
DWIDTH 11 0
BBX 7 2 2 14
BITMAP
C6
C6
ENDCHAR
STARTCHAR 00A9
ENCODING 169
SWIDTH 864 0
DWIDTH 18 0
BBX 16 16 1 0
BITMAP
0FE0
1E78
301C
67E6
CC36
CC33
CC03
8C03
8C33
CC33
C7E3
67E6
600E
381C
1FF8
07E0
ENDCHAR
STARTCHAR 00AA
ENCODING 170
SWIDTH 624 0
DWIDTH 13 0
BBX 9 14 2 2
BITMAP
7F00
C300
0380
7F80
E380
E380
E380
E380
E380
7F80
3F80
0000
FF80
FF80
ENDCHAR
STARTCHAR 00AB
ENCODING 171
SWIDTH 816 0
DWIDTH 17 0
BBX 15 13 1 0
BITMAP
039E
0738
0E70
1CE0
39C0
7380
E380
71C0
38C0
1C60
0E30
0718
039E
ENDCHAR
STARTCHAR 00AC
ENCODING 172
SWIDTH 576 0
DWIDTH 12 0
BBX 9 6 2 3
BITMAP
FF80
FF80
0180
0180
0180
0180
ENDCHAR
STARTCHAR 00AE
ENCODING 174
SWIDTH 864 0
DWIDTH 18 0
BBX 16 16 1 0
BITMAP
0FE0
1E78
301C
67C6
C7E6
C433
C423
87E3
87E3
C423
C423
6426
600E
381C
1FF8
07E0
ENDCHAR
STARTCHAR 00AF
ENCODING 175
SWIDTH 528 0
DWIDTH 11 0
BBX 7 2 2 14
BITMAP
FE
FE
ENDCHAR
STARTCHAR 00B0
ENCODING 176
SWIDTH 528 0
DWIDTH 11 0
BBX 7 7 2 9
BITMAP
7C
EC
C6
86
C6
FC
38
ENDCHAR
STARTCHAR 00B1
ENCODING 177
SWIDTH 576 0
DWIDTH 12 0
BBX 9 12 2 0
BITMAP
1800
1800
1800
F800
FF80
1800
1800
1800
1800
0000
FF80
FF80
ENDCHAR
STARTCHAR 00B2
ENCODING 178
SWIDTH 432 0
DWIDTH 9 0
BBX 5 8 2 8
BITMAP
F0
98
18
18
30
60
C0
F8
ENDCHAR
STARTCHAR 00B3
ENCODING 179
SWIDTH 432 0
DWIDTH 9 0
BBX 5 8 2 9
BITMAP
F8
30
60
70
18
18
98
F0
ENDCHAR
STARTCHAR 00B4
ENCODING 180
SWIDTH 480 0
DWIDTH 10 0
BBX 5 4 3 13
BITMAP
38
20
60
C0
ENDCHAR
STARTCHAR 00B5
ENCODING 181
SWIDTH 864 0
DWIDTH 18 0
BBX 14 16 2 -4
BITMAP
78F0
78F0
78F0
78F0
78F0
78F0
78F0
78F0
78F0
78F0
7FFC
7FFC
6000
6000
E000
8000
ENDCHAR
STARTCHAR 00B6
ENCODING 182
SWIDTH 672 0
DWIDTH 14 0
BBX 10 16 2 0
BITMAP
3FC0
FFC0
C6C0
C6C0
C6C0
C6C0
C6C0
FEC0
3EC0
06C0
06C0
06C0
06C0
06C0
06C0
06C0
ENDCHAR
STARTCHAR 00B7
ENCODING 183
SWIDTH 336 0
DWIDTH 7 0
BBX 3 4 2 7
BITMAP
E0
E0
E0
E0
ENDCHAR
STARTCHAR 00B8
ENCODING 184
SWIDTH 336 0
DWIDTH 7 0
BBX 3 4 2 -4
BITMAP
60
60
E0
C0
ENDCHAR
STARTCHAR 00B9
ENCODING 185
SWIDTH 336 0
DWIDTH 7 0
BBX 3 8 2 9
BITMAP
60
E0
60
60
60
60
60
60
ENDCHAR
STARTCHAR 00BA
ENCODING 186
SWIDTH 624 0
DWIDTH 13 0
BBX 9 14 2 2
BITMAP
3E00
E300
E380
E380
E380
E380
E380
E380
E380
FF00
7E00
0000
FF80
FF80
ENDCHAR
STARTCHAR 00BB
ENCODING 187
SWIDTH 816 0
DWIDTH 17 0
BBX 15 13 1 0
BITMAP
F380
39C0
1CE0
0E70
0738
039C
01CE
039C
0738
0E70
1CE0
39C0
7380
ENDCHAR
STARTCHAR 00BC
ENCODING 188
SWIDTH 816 0
DWIDTH 17 0
BBX 15 17 1 0
BITMAP
3006
500C
1018
1030
1020
1040
10C0
1180
0300
0218
0628
0C48
1888
10FC
3008
6008
C008
ENDCHAR
STARTCHAR 00BD
ENCODING 189
SWIDTH 816 0
DWIDTH 17 0
BBX 15 17 1 0
BITMAP
3006
500C
1018
1030
1020
1060
10C0
1180
0300
0278
064C
0C0C
180C
1018
3030
6060
C07C
ENDCHAR
STARTCHAR 00BE
ENCODING 190
SWIDTH 816 0
DWIDTH 17 0
BBX 15 17 1 0
BITMAP
7C06
180C
3018
3830
0C20
0C40
8CC0
7980
0300
0218
0628
0C48
1888
10FC
3008
6008
C008
ENDCHAR
STARTCHAR 00BF
ENCODING 191
SWIDTH 672 0
DWIDTH 14 0
BBX 10 16 2 -3
BITMAP
1E00
1E00
1E00
1E00
0000
0000
1E00
1E00
1E00
3C00
7800
F000
E000
E0C0
7FC0
3F80
ENDCHAR
STARTCHAR 00C0
ENCODING 192
SWIDTH 672 0
DWIDTH 14 0
BBX 10 18 2 0
BITMAP
1800
0400
3F00
7F80
E1C0
E1C0
E1C0
E1C0
E1C0
FFC0
FFC0
E1C0
E1C0
E1C0
E1C0
E1C0
E1C0
E1C0
ENDCHAR
STARTCHAR 00C1
ENCODING 193
SWIDTH 672 0
DWIDTH 14 0
BBX 10 18 2 0
BITMAP
0600
0C00
3F00
7F80
E1C0
E1C0
E1C0
E1C0
E1C0
FFC0
FFC0
E1C0
E1C0
E1C0
E1C0
E1C0
E1C0
E1C0
ENDCHAR
STARTCHAR 00C2
ENCODING 194
SWIDTH 672 0
DWIDTH 14 0
BBX 10 19 2 0
BITMAP
0C00
1E00
2100
3F00
7F80
E1C0
E1C0
E1C0
E1C0
E1C0
FFC0
FFC0
E1C0
E1C0
E1C0
E1C0
E1C0
E1C0
E1C0
ENDCHAR
STARTCHAR 00C3
ENCODING 195
SWIDTH 672 0
DWIDTH 14 0
BBX 10 19 2 0
BITMAP
1100
3F00
0000
3F00
7F80
E1C0
E1C0
E1C0
E1C0
E1C0
FFC0
FFC0
E1C0
E1C0
E1C0
E1C0
E1C0
E1C0
E1C0
ENDCHAR
STARTCHAR 00C4
ENCODING 196
SWIDTH 672 0
DWIDTH 14 0
BBX 10 18 2 0
BITMAP
2100
0000
3F00
7F80
E1C0
E1C0
E1C0
E1C0
E1C0
FFC0
FFC0
E1C0
E1C0
E1C0
E1C0
E1C0
E1C0
E1C0
ENDCHAR
STARTCHAR 00C5
ENCODING 197
SWIDTH 672 0
DWIDTH 14 0
BBX 10 21 2 0
BITMAP
0C00
1200
1200
1E00
0000
3F00
7F80
E1C0
E1C0
E1C0
E1C0
E1C0
FFC0
FFC0
E1C0
E1C0
E1C0
E1C0
E1C0
E1C0
E1C0
ENDCHAR
STARTCHAR 00C6
ENCODING 198
SWIDTH 912 0
DWIDTH 19 0
BBX 16 16 2 0
BITMAP
3FFF
7FFF
E1C0
E1C0
E1C0
E1C0
E1C0
FFFC
FFFC
E1C0
E1C0
E1C0
E1C0
E1C0
E1FF
E1FF
ENDCHAR
STARTCHAR 00C7
ENCODING 199
SWIDTH 672 0
DWIDTH 14 0
BBX 10 20 2 -4
BITMAP
7F80
FFC0
E0C0
E040
E000
E000
E000
E000
E000
E000
E000
E000
E040
E0C0
FFC0
7F00
0C00
0C00
3C00
3800
ENDCHAR
STARTCHAR 00C8
ENCODING 200
SWIDTH 576 0
DWIDTH 12 0
BBX 9 18 2 0
BITMAP
1800
0400
FF80
FF80
E000
E000
E000
E000
E000
FE00
FE00
E000
E000
E000
E000
E000
FF80
FF80
ENDCHAR
STARTCHAR 00C9
ENCODING 201
SWIDTH 576 0
DWIDTH 12 0
BBX 9 18 2 0
BITMAP
0C00
1000
FF80
FF80
E000
E000
E000
E000
E000
FE00
FE00
E000
E000
E000
E000
E000
FF80
FF80
ENDCHAR
STARTCHAR 00CA
ENCODING 202
SWIDTH 576 0
DWIDTH 12 0
BBX 9 19 2 0
BITMAP
1800
3400
4200
FF80
FF80
E000
E000
E000
E000
E000
FE00
FE00
E000
E000
E000
E000
E000
FF80
FF80
ENDCHAR
STARTCHAR 00CB
ENCODING 203
SWIDTH 576 0
DWIDTH 12 0
BBX 9 18 2 0
BITMAP
6200
0000
FF80
FF80
E000
E000
E000
E000
E000
FE00
FE00
E000
E000
E000
E000
E000
FF80
FF80
ENDCHAR
STARTCHAR 00CC
ENCODING 204
SWIDTH 528 0
DWIDTH 11 0
BBX 4 18 3 0
BITMAP
E0
30
F0
F0
F0
F0
F0
F0
F0
F0
F0
F0
F0
F0
F0
F0
F0
F0
ENDCHAR
STARTCHAR 00CD
ENCODING 205
SWIDTH 528 0
DWIDTH 11 0
BBX 5 18 3 0
BITMAP
18
20
F0
F0
F0
F0
F0
F0
F0
F0
F0
F0
F0
F0
F0
F0
F0
F0
ENDCHAR
STARTCHAR 00CE
ENCODING 206
SWIDTH 528 0
DWIDTH 11 0
BBX 5 19 3 0
BITMAP
60
D0
08
F0
F0
F0
F0
F0
F0
F0
F0
F0
F0
F0
F0
F0
F0
F0
F0
ENDCHAR
STARTCHAR 00CF
ENCODING 207
SWIDTH 528 0
DWIDTH 11 0
BBX 6 18 2 0
BITMAP
84
00
78
78
78
78
78
78
78
78
78
78
78
78
78
78
78
78
ENDCHAR
STARTCHAR 00D0
ENCODING 208
SWIDTH 672 0
DWIDTH 14 0
BBX 11 16 1 0
BITMAP
7F80
7FE0
70E0
70E0
70E0
70E0
70E0
F8E0
F8E0
70E0
70E0
70E0
70E0
70E0
7FC0
7F80
ENDCHAR
STARTCHAR 00D1
ENCODING 209
SWIDTH 768 0
DWIDTH 16 0
BBX 12 19 2 0
BITMAP
0880
1F00
0000
8030
C030
E030
F030
F830
FC30
FE30
FF30
DFB0
CFF0
C7F0
C3F0
C1F0
C070
C030
C010
ENDCHAR
STARTCHAR 00D2
ENCODING 210
SWIDTH 672 0
DWIDTH 14 0
BBX 10 18 2 0
BITMAP
3000
0800
3F00
7F80
E1C0
E1C0
E1C0
E1C0
E1C0
E1C0
E1C0
E1C0
E1C0
E1C0
E1C0
E1C0
FFC0
3F00
ENDCHAR
STARTCHAR 00D3
ENCODING 211
SWIDTH 672 0
DWIDTH 14 0
BBX 10 18 2 0
BITMAP
0700
0C00
3F00
7F80
E1C0
E1C0
E1C0
E1C0
E1C0
E1C0
E1C0
E1C0
E1C0
E1C0
E1C0
E1C0
FFC0
3F00
ENDCHAR
STARTCHAR 00D4
ENCODING 212
SWIDTH 672 0
DWIDTH 14 0
BBX 10 19 2 0
BITMAP
0C00
1E00
2100
3F00
7F80
E1C0
E1C0
E1C0
E1C0
E1C0
E1C0
E1C0
E1C0
E1C0
E1C0
E1C0
E1C0
FFC0
3F00
ENDCHAR
STARTCHAR 00D5
ENCODING 213
SWIDTH 672 0
DWIDTH 14 0
BBX 10 19 2 0
BITMAP
0900
3F00
0000
3F00
7F80
E1C0
E1C0
E1C0
E1C0
E1C0
E1C0
E1C0
E1C0
E1C0
E1C0
E1C0
E1C0
FFC0
3F00
ENDCHAR
STARTCHAR 00D6
ENCODING 214
SWIDTH 672 0
DWIDTH 14 0
BBX 10 18 2 0
BITMAP
2100
0000
3F00
7F80
E1C0
E1C0
E1C0
E1C0
E1C0
E1C0
E1C0
E1C0
E1C0
E1C0
E1C0
E1C0
FFC0
3F00
ENDCHAR
STARTCHAR 00D7
ENCODING 215
SWIDTH 672 0
DWIDTH 14 0
BBX 10 12 2 0
BITMAP
E1C0
E1C0
E1C0
E1C0
E1C0
7F80
7F80
E1C0
E1C0
E1C0
E1C0
E1C0
ENDCHAR
STARTCHAR 00D8
ENCODING 216
SWIDTH 672 0
DWIDTH 14 0
BBX 14 16 0 0
BITMAP
0FC8
1FFC
3878
3870
3878
38F8
39F8
3B78
3F78
3E78
3C78
3878
3878
7870
FFF0
8FE0
ENDCHAR
STARTCHAR 00D9
ENCODING 217
SWIDTH 672 0
DWIDTH 14 0
BBX 10 18 2 0
BITMAP
3800
0C00
E1C0
E1C0
E1C0
E1C0
E1C0
E1C0
E1C0
E1C0
E1C0
E1C0
E1C0
E1C0
E1C0
E1C0
FFC0
3F00
ENDCHAR
STARTCHAR 00DA
ENCODING 218
SWIDTH 672 0
DWIDTH 14 0
BBX 10 18 2 0
BITMAP
0700
0C00
E1C0
E1C0
E1C0
E1C0
E1C0
E1C0
E1C0
E1C0
E1C0
E1C0
E1C0
E1C0
E1C0
E1C0
FFC0
3F00
ENDCHAR
STARTCHAR 00DB
ENCODING 219
SWIDTH 672 0
DWIDTH 14 0
BBX 10 19 2 0
BITMAP
0C00
1E00
2100
E1C0
E1C0
E1C0
E1C0
E1C0
E1C0
E1C0
E1C0
E1C0
E1C0
E1C0
E1C0
E1C0
E1C0
FFC0
3F00
ENDCHAR
STARTCHAR 00DC
ENCODING 220
SWIDTH 672 0
DWIDTH 14 0
BBX 10 18 2 0
BITMAP
2100
0000
E1C0
E1C0
E1C0
E1C0
E1C0
E1C0
E1C0
E1C0
E1C0
E1C0
E1C0
E1C0
E1C0
E1C0
FFC0
3F00
ENDCHAR
STARTCHAR 00DD
ENCODING 221
SWIDTH 672 0
DWIDTH 14 0
BBX 10 18 2 0
BITMAP
0700
0C00
E1C0
E1C0
E1C0
E1C0
E1C0
E1C0
6180
3300
1E00
1E00
1E00
1E00
1E00
1E00
1E00
1E00
ENDCHAR
STARTCHAR 00DE
ENCODING 222
SWIDTH 672 0
DWIDTH 14 0
BBX 10 16 2 0
BITMAP
E000
E000
E000
E000
FF80
FFC0
E1C0
E1C0
E1C0
E1C0
E1C0
FF80
FF00
E000
E000
E000
ENDCHAR
STARTCHAR 00DF
ENCODING 223
SWIDTH 768 0
DWIDTH 16 0
BBX 12 16 2 0
BITMAP
1FE0
3FF0
38F0
78F0
78F0
79E0
79C0
78E0
78F0
78F0
78F0
78F0
78F0
78F0
F9F0
F9E0
ENDCHAR
STARTCHAR 00E0
ENCODING 224
SWIDTH 672 0
DWIDTH 14 0
BBX 10 17 2 0
BITMAP
3000
1800
0800
0400
0000
7F80
E1C0
C1C0
3FC0
7FC0
E1C0
E1C0
E1C0
E1C0
E1C0
FFC0
7FC0
ENDCHAR
STARTCHAR 00E1
ENCODING 225
SWIDTH 672 0
DWIDTH 14 0
BBX 10 17 2 0
BITMAP
0300
0600
0400
0C00
0000
7F80
E1C0
C1C0
3FC0
7FC0
E1C0
E1C0
E1C0
E1C0
E1C0
FFC0
7FC0
ENDCHAR
STARTCHAR 00E2
ENCODING 226
SWIDTH 672 0
DWIDTH 14 0
BBX 10 17 2 0
BITMAP
0C00
1E00
3300
0000
0000
7F80
E1C0
C1C0
3FC0
7FC0
E1C0
E1C0
E1C0
E1C0
E1C0
FFC0
7FC0
ENDCHAR
STARTCHAR 00E3
ENCODING 227
SWIDTH 672 0
DWIDTH 14 0
BBX 10 16 2 0
BITMAP
3D80
6F80
0000
0000
7F80
E1C0
C1C0
3FC0
7FC0
E1C0
E1C0
E1C0
E1C0
E1C0
FFC0
7FC0
ENDCHAR
STARTCHAR 00E4
ENCODING 228
SWIDTH 672 0
DWIDTH 14 0
BBX 10 16 2 0
BITMAP
6100
0000
0000
0000
7F80
E1C0
C1C0
3FC0
7FC0
E1C0
E1C0
E1C0
E1C0
E1C0
FFC0
7FC0
ENDCHAR
STARTCHAR 00E5
ENCODING 229
SWIDTH 672 0
DWIDTH 14 0
BBX 10 20 2 0
BITMAP
0C00
1E00
3300
2100
3300
1E00
0000
0000
7F80
E1C0
C1C0
3FC0
7FC0
E1C0
E1C0
E1C0
E1C0
E1C0
FFC0
7FC0
ENDCHAR
STARTCHAR 00E6
ENCODING 230
SWIDTH 1008 0
DWIDTH 21 0
BBX 17 12 2 0
BITMAP
7F7E00
FFC300
C1C380
3FC380
7FC380
E1FF80
E1FF80
E1C000
E1C000
E1C180
FFFF80
7FFF00
ENDCHAR
STARTCHAR 00E7
ENCODING 231
SWIDTH 576 0
DWIDTH 12 0
BBX 9 16 2 -4
BITMAP
7E00
E700
E100
E080
E000
E000
E000
E000
E180
E300
7F00
3E00
1800
1800
3800
3000
ENDCHAR
STARTCHAR 00E8
ENCODING 232
SWIDTH 672 0
DWIDTH 14 0
BBX 10 17 2 0
BITMAP
3000
1800
0C00
0400
0200
7F80
E1C0
E1C0
E1C0
E1C0
FFC0
FFC0
E000
E0C0
E0C0
7F80
3F00
ENDCHAR
STARTCHAR 00E9
ENCODING 233
SWIDTH 672 0
DWIDTH 14 0
BBX 10 17 2 0
BITMAP
0300
0600
0400
0C00
0000
7F80
E1C0
E1C0
E1C0
E1C0
FFC0
FFC0
E000
E0C0
E0C0
7F80
3F00
ENDCHAR
STARTCHAR 00EA
ENCODING 234
SWIDTH 672 0
DWIDTH 14 0
BBX 10 17 2 0
BITMAP
0C00
1E00
3300
0000
0000
7F80
E1C0
E1C0
E1C0
E1C0
FFC0
FFC0
E000
E0C0
E0C0
7F80
3F00
ENDCHAR
STARTCHAR 00EB
ENCODING 235
SWIDTH 672 0
DWIDTH 14 0
BBX 10 16 2 0
BITMAP
6100
0000
0000
0000
7F80
E1C0
E1C0
E1C0
E1C0
FFC0
FFC0
E000
E0C0
E0C0
7F80
3F00
ENDCHAR
STARTCHAR 00EC
ENCODING 236
SWIDTH 336 0
DWIDTH 7 0
BBX 5 17 0 0
BITMAP
C0
60
30
18
00
38
38
38
38
38
38
38
38
38
38
38
38
ENDCHAR
STARTCHAR 00ED
ENCODING 237
SWIDTH 336 0
DWIDTH 7 0
BBX 5 17 2 0
BITMAP
18
30
20
40
00
E0
E0
E0
E0
E0
E0
E0
E0
E0
E0
E0
E0
ENDCHAR
STARTCHAR 00EE
ENCODING 238
SWIDTH 336 0
DWIDTH 7 0
BBX 7 17 0 0
BITMAP
10
28
44
82
00
38
38
38
38
38
38
38
38
38
38
38
38
ENDCHAR
STARTCHAR 00EF
ENCODING 239
SWIDTH 336 0
DWIDTH 7 0
BBX 7 16 0 0
BITMAP
C6
00
00
00
38
38
38
38
38
38
38
38
38
38
38
38
ENDCHAR
STARTCHAR 00F0
ENCODING 240
SWIDTH 672 0
DWIDTH 14 0
BBX 10 17 2 0
BITMAP
0800
7F80
7FC0
11C0
01C0
3FC0
FFC0
E1C0
E1C0
E1C0
E1C0
E1C0
E1C0
E1C0
E1C0
E1C0
7F80
ENDCHAR
STARTCHAR 00F1
ENCODING 241
SWIDTH 672 0
DWIDTH 14 0
BBX 10 16 2 0
BITMAP
3D80
7F00
8000
0000
FF80
E1C0
E1C0
E1C0
E1C0
E1C0
E1C0
E1C0
E1C0
E1C0
E1C0
E1C0
ENDCHAR
STARTCHAR 00F2
ENCODING 242
SWIDTH 672 0
DWIDTH 14 0
BBX 10 17 2 0
BITMAP
6000
1000
1800
0C00
0000
7F80
E1C0
E1C0
E1C0
E1C0
E1C0
E1C0
E1C0
E1C0
E1C0
FFC0
7F80
ENDCHAR
STARTCHAR 00F3
ENCODING 243
SWIDTH 672 0
DWIDTH 14 0
BBX 10 17 2 0
BITMAP
0300
0600
0400
0C00
0000
7F80
E1C0
E1C0
E1C0
E1C0
E1C0
E1C0
E1C0
E1C0
E1C0
FFC0
7F80
ENDCHAR
STARTCHAR 00F4
ENCODING 244
SWIDTH 672 0
DWIDTH 14 0
BBX 10 17 2 0
BITMAP
0C00
1E00
3300
0000
0000
7F80
E1C0
E1C0
E1C0
E1C0
E1C0
E1C0
E1C0
E1C0
E1C0
FFC0
7F80
ENDCHAR
STARTCHAR 00F5
ENCODING 245
SWIDTH 672 0
DWIDTH 14 0
BBX 10 16 2 0
BITMAP
3DC0
6F80
0000
0000
7F80
E1C0
E1C0
E1C0
E1C0
E1C0
E1C0
E1C0
E1C0
E1C0
FFC0
7F80
ENDCHAR
STARTCHAR 00F6
ENCODING 246
SWIDTH 672 0
DWIDTH 14 0
BBX 10 16 2 0
BITMAP
6100
0000
0000
0000
7F80
E1C0
E1C0
E1C0
E1C0
E1C0
E1C0
E1C0
E1C0
E1C0
FFC0
7F80
ENDCHAR
STARTCHAR 00F7
ENCODING 247
SWIDTH 576 0
DWIDTH 12 0
BBX 9 9 2 3
BITMAP
1800
1800
0000
FF80
FF80
0000
0000
1800
1800
ENDCHAR
STARTCHAR 00F8
ENCODING 248
SWIDTH 672 0
DWIDTH 14 0
BBX 14 12 0 0
BITMAP
0FF8
3FFC
3870
38F0
39F0
3BF0
3E70
3C70
3870
7870
FFF0
DFE0
ENDCHAR
STARTCHAR 00F9
ENCODING 249
SWIDTH 672 0
DWIDTH 14 0
BBX 10 17 2 0
BITMAP
3000
1800
0800
0400
0000
E1C0
E1C0
E1C0
E1C0
E1C0
E1C0
E1C0
E1C0
E1C0
E1C0
FFC0
3FC0
ENDCHAR
STARTCHAR 00FA
ENCODING 250
SWIDTH 672 0
DWIDTH 14 0
BBX 10 17 2 0
BITMAP
0300
0600
0400
0C00
0000
E1C0
E1C0
E1C0
E1C0
E1C0
E1C0
E1C0
E1C0
E1C0
E1C0
FFC0
3FC0
ENDCHAR
STARTCHAR 00FB
ENCODING 251
SWIDTH 672 0
DWIDTH 14 0
BBX 10 17 2 0
BITMAP
0C00
1E00
3300
0000
0000
E1C0
E1C0
E1C0
E1C0
E1C0
E1C0
E1C0
E1C0
E1C0
E1C0
FFC0
3FC0
ENDCHAR
STARTCHAR 00FC
ENCODING 252
SWIDTH 672 0
DWIDTH 14 0
BBX 10 16 2 0
BITMAP
6100
0000
0000
0000
E1C0
E1C0
E1C0
E1C0
E1C0
E1C0
E1C0
E1C0
E1C0
E1C0
FFC0
3FC0
ENDCHAR
STARTCHAR 00FD
ENCODING 253
SWIDTH 672 0
DWIDTH 14 0
BBX 10 21 2 -4
BITMAP
0180
0200
0600
0C00
0000
E1C0
E1C0
E1C0
E1C0
E1C0
E1C0
E1C0
E1C0
E1C0
FFC0
3FC0
01C0
81C0
C1C0
7F80
3F00
ENDCHAR
STARTCHAR 00FE
ENCODING 254
SWIDTH 672 0
DWIDTH 14 0
BBX 10 20 2 -4
BITMAP
E000
E000
E000
E000
FF00
FFC0
E1C0
E1C0
E1C0
E1C0
E1C0
E1C0
E1C0
E1C0
E1C0
FF80
E000
E000
E000
E000
ENDCHAR
STARTCHAR 00FF
ENCODING 255
SWIDTH 672 0
DWIDTH 14 0
BBX 10 20 2 -4
BITMAP
6100
0000
0000
0000
E1C0
E1C0
E1C0
E1C0
E1C0
E1C0
E1C0
E1C0
E1C0
E1C0
7FC0
01C0
01C0
C1C0
FFC0
7F80
ENDCHAR
STARTCHAR 0152
ENCODING 338
SWIDTH 912 0
DWIDTH 19 0
BBX 16 16 2 0
BITMAP
3FFF
7FFF
E1C0
E1C0
E1C0
E1C0
E1C0
E1FC
E1FC
E1C0
E1C0
E1C0
E1C0
E1C0
FFFF
3FFF
ENDCHAR
STARTCHAR 0153
ENCODING 339
SWIDTH 1008 0
DWIDTH 21 0
BBX 17 12 2 0
BITMAP
3F7E00
7FFF00
E1C380
E1C380
E1C380
E1FF80
E1FF80
E1C000
E1C080
E1C180
E1FF80
7FFF00
ENDCHAR
STARTCHAR 0160
ENCODING 352
SWIDTH 576 0
DWIDTH 12 0
BBX 8 20 2 0
BITMAP
03
76
1C
08
3C
7F
E3
E1
E0
F0
F8
7C
3E
1F
0F
07
C7
C7
FF
3E
ENDCHAR
STARTCHAR 0161
ENCODING 353
SWIDTH 576 0
DWIDTH 12 0
BBX 9 18 2 0
BITMAP
E380
3600
1C00
0800
0000
0000
7E00
E700
E100
F000
F800
7E00
3F00
0F00
C700
C700
FF00
3E00
ENDCHAR
STARTCHAR 0178
ENCODING 376
SWIDTH 672 0
DWIDTH 14 0
BBX 10 18 2 0
BITMAP
2100
0000
E1C0
E1C0
E1C0
E1C0
E1C0
E1C0
6180
3300
1E00
1E00
1E00
1E00
1E00
1E00
1E00
1E00
ENDCHAR
STARTCHAR 0192
ENCODING 402
SWIDTH 528 0
DWIDTH 11 0
BBX 7 19 2 -3
BITMAP
3E
3E
78
78
78
F8
FE
78
78
78
78
78
78
78
78
78
78
78
F8
ENDCHAR
STARTCHAR 02C6
ENCODING 710
SWIDTH 528 0
DWIDTH 11 0
BBX 9 4 1 14
BITMAP
0800
1C00
3600
E380
ENDCHAR
STARTCHAR 02DC
ENCODING 732
SWIDTH 528 0
DWIDTH 11 0
BBX 9 2 1 14
BITMAP
7980
FF00
ENDCHAR
STARTCHAR 2013
ENCODING 8211
SWIDTH 528 0
DWIDTH 11 0
BBX 7 2 2 7
BITMAP
FE
FE
ENDCHAR
STARTCHAR 2014
ENCODING 8212
SWIDTH 864 0
DWIDTH 18 0
BBX 14 2 2 7
BITMAP
FFFC
FFFC
ENDCHAR
STARTCHAR 2018
ENCODING 8216
SWIDTH 336 0
DWIDTH 7 0
BBX 3 7 2 9
BITMAP
60
C0
C0
E0
E0
E0
E0
ENDCHAR
STARTCHAR 2019
ENCODING 8217
SWIDTH 336 0
DWIDTH 7 0
BBX 3 8 2 9
BITMAP
E0
E0
E0
E0
20
60
E0
C0
ENDCHAR
STARTCHAR 201A
ENCODING 8218
SWIDTH 336 0
DWIDTH 7 0
BBX 3 7 2 -1
BITMAP
E0
E0
E0
E0
60
60
C0
ENDCHAR
STARTCHAR 201C
ENCODING 8220
SWIDTH 576 0
DWIDTH 12 0
BBX 9 7 2 9
BITMAP
6300
C600
C600
E780
E780
E780
E780
ENDCHAR
STARTCHAR 201D
ENCODING 8221
SWIDTH 576 0
DWIDTH 12 0
BBX 9 8 2 9
BITMAP
E780
E780
E780
E780
2180
6180
E700
C600
ENDCHAR
STARTCHAR 201E
ENCODING 8222
SWIDTH 576 0
DWIDTH 12 0
BBX 9 7 2 -1
BITMAP
E780
E780
E780
E780
6180
6300
C600
ENDCHAR
STARTCHAR 2020
ENCODING 8224
SWIDTH 432 0
DWIDTH 9 0
BBX 5 12 2 4
BITMAP
60
60
F8
F8
60
60
60
60
60
60
60
60
ENDCHAR
STARTCHAR 2021
ENCODING 8225
SWIDTH 432 0
DWIDTH 9 0
BBX 5 13 2 3
BITMAP
60
60
F8
F8
60
60
60
60
60
F8
F8
60
60
ENDCHAR
STARTCHAR 2022
ENCODING 8226
SWIDTH 576 0
DWIDTH 12 0
BBX 9 9 2 4
BITMAP
3C00
7F00
FF00
FF80
FF80
FF80
FF00
7F00
3C00
ENDCHAR
STARTCHAR 2026
ENCODING 8230
SWIDTH 1200 0
DWIDTH 25 0
BBX 18 4 3 0
BITMAP
F1E1C0
F1E1C0
F1E1C0
F1E1C0
ENDCHAR
STARTCHAR 2030
ENCODING 8240
SWIDTH 1200 0
DWIDTH 25 0
BBX 21 16 2 0
BITMAP
3FF000
FFE000
8CC000
84C000
CD8000
798000
030000
030000
060000
060000
0E78F0
0CCD98
1C8D88
188D88
18D8D8
307070
ENDCHAR
STARTCHAR 2039
ENCODING 8249
SWIDTH 576 0
DWIDTH 12 0
BBX 9 13 1 0
BITMAP
0380
0700
0E00
1C00
3800
7000
E000
7000
3800
1C00
0E00
0700
0380
ENDCHAR
STARTCHAR 203A
ENCODING 8250
SWIDTH 576 0
DWIDTH 12 0
BBX 9 13 2 0
BITMAP
E000
7000
3800
1C00
0E00
0700
0380
0700
0E00
1C00
3800
7000
E000
ENDCHAR
STARTCHAR 2122
ENCODING 8482
SWIDTH 1008 0
DWIDTH 21 0
BBX 16 7 2 9
BITMAP
F9C7
21C7
21EF
21BB
2193
2183
2183
ENDCHAR
STARTCHAR 2219
ENCODING 8729
SWIDTH 336 0
DWIDTH 7 0
BBX 3 4 2 7
BITMAP
E0
E0
E0
E0
ENDCHAR
STARTCHAR E000
ENCODING 57344
SWIDTH 0 0
DWIDTH 0 0
BBX 0 0 0 0
BITMAP
ENDCHAR
STARTCHAR E001
ENCODING 57345
SWIDTH 0 0
DWIDTH 0 0
BBX 0 0 0 0
BITMAP
ENDCHAR
STARTCHAR E002
ENCODING 57346
SWIDTH 0 0
DWIDTH 0 0
BBX 0 0 0 0
BITMAP
ENDCHAR
STARTCHAR E003
ENCODING 57347
SWIDTH 960 0
DWIDTH 20 0
BBX 16 16 2 0
BITMAP
783E
8423
8461
8461
8461
FFFE
3FFC
0460
0460
0460
7FFE
8463
8461
8461
8421
783E
ENDCHAR
STARTCHAR E004
ENCODING 57348
SWIDTH 912 0
DWIDTH 19 0
BBX 16 15 2 0
BITMAP
0001
0003
0007
000F
001E
003C
0078
80F0
81E0
C3C0
E780
FF00
7E00
3C00
1800
ENDCHAR
STARTCHAR E005
ENCODING 57349
SWIDTH 768 0
DWIDTH 16 0
BBX 12 13 2 0
BITMAP
0400
0E00
0F00
1F80
3FC0
7FE0
FFF0
7FE0
3FC0
1F80
1F00
0E00
0400
ENDCHAR
STARTCHAR E006
ENCODING 57350
SWIDTH 912 0
DWIDTH 19 0
BBX 16 16 1 0
BITMAP
0030
0060
00C0
1E1E
3FFF
7FFE
7FFC
FFFC
FFFC
7FFC
7FFE
7FFF
3FFF
1FFE
1FFE
0F3C
ENDCHAR
STARTCHAR E007
ENCODING 57351
SWIDTH 576 0
DWIDTH 12 0
BBX 9 2 2 7
BITMAP
FF80
FF80
ENDCHAR
STARTCHAR E008
ENCODING 57352
SWIDTH 768 0
DWIDTH 16 0
BBX 12 9 2 3
BITMAP
0180
0300
FFF0
0600
0600
FFF0
FFF0
0C00
1800
ENDCHAR
STARTCHAR E009
ENCODING 57353
SWIDTH 1200 0
DWIDTH 25 0
BBX 21 9 2 3
BITMAP
FE07F0
FF0FF8
C39C18
C0F818
C0F018
C0D818
C1DC18
FF8FF8
FF07F0
ENDCHAR
STARTCHAR E00A
ENCODING 57354
SWIDTH 528 0
DWIDTH 11 0
BBX 7 12 2 0
BITMAP
0E
18
30
60
C0
60
30
18
0C
02
FE
FE
ENDCHAR
STARTCHAR E00B
ENCODING 57355
SWIDTH 528 0
DWIDTH 11 0
BBX 7 12 2 0
BITMAP
60
30
18
0C
06
0C
18
30
60
00
FE
FE
ENDCHAR
STARTCHAR E00C
ENCODING 57356
SWIDTH 672 0
DWIDTH 14 0
BBX 10 14 2 0
BITMAP
7F00
7F80
07C0
1FC0
7FC0
71C0
E1C0
E1C0
E1C0
E1C0
E1C0
E1C0
FF80
FF00
ENDCHAR
STARTCHAR E00D
ENCODING 57357
SWIDTH 768 0
DWIDTH 16 0
BBX 12 16 2 0
BITMAP
FFF0
FFF0
7830
3C30
1E00
0F00
0780
03C0
07C0
0F80
1F00
3E00
7C30
F830
FFF0
FFF0
ENDCHAR
STARTCHAR E00E
ENCODING 57358
SWIDTH 864 0
DWIDTH 18 0
BBX 14 16 2 0
BITMAP
FFFC
FFFC
78F0
78F0
78F0
78F0
78F0
78F0
78F0
78F0
78F0
78F0
78F0
78F0
78F0
78F0
ENDCHAR
STARTCHAR E00F
ENCODING 57359
SWIDTH 960 0
DWIDTH 20 0
BBX 17 15 2 0
BITMAP
000180
000180
7FFF80
FFFF00
DE3C00
9E3C00
1E3C00
1E3C00
1E3C00
1E3C00
1E3C00
1E3C00
1E3C00
1C3800
183000
ENDCHAR
STARTCHAR E010
ENCODING 57360
SWIDTH 528 0
DWIDTH 11 0
BBX 7 20 2 -4
BITMAP
3E
3E
78
78
78
78
78
78
78
78
78
78
78
78
78
78
78
78
F8
F0
ENDCHAR
STARTCHAR E011
ENCODING 57361
SWIDTH 864 0
DWIDTH 18 0
BBX 14 16 2 0
BITMAP
3FE0
7FF0
F038
E03C
E03C
E03C
E03C
E03C
E03C
E038
7078
18C0
18C0
18C0
78F0
78F0
ENDCHAR
STARTCHAR E012
ENCODING 57362
SWIDTH 1008 0
DWIDTH 21 0
BBX 17 18 2 0
BITMAP
000F80
000F80
001C00
001800
003800
003000
007000
206000
F06000
F0C000
B0C000
39C000
198000
1B8000
1F0000
0F0000
0E0000
060000
ENDCHAR
STARTCHAR E013
ENCODING 57363
SWIDTH 864 0
DWIDTH 18 0
BBX 11 9 3 4
BITMAP
0060
0060
3FE0
7FC0
6060
C060
7FE0
7FC0
C000
ENDCHAR
STARTCHAR E014
ENCODING 57364
SWIDTH 816 0
DWIDTH 17 0
BBX 15 15 1 0
BITMAP
0200
0100
0300
0380
0780
04C0
0CC0
0860
1820
1030
3010
2018
6008
7FFC
FFFE
ENDCHAR
STARTCHAR E015
ENCODING 57365
SWIDTH 336 0
DWIDTH 7 0
BBX 0 0 0 0
BITMAP
ENDCHAR
STARTCHAR E016
ENCODING 57366
SWIDTH 768 0
DWIDTH 16 0
BBX 15 15 1 1
BITMAP
0100
0380
07C0
0CE0
1870
3038
601C
C00E
6018
3030
1870
0CE0
07C0
0380
0100
ENDCHAR
STARTCHAR E017
ENCODING 57367
SWIDTH 1008 0
DWIDTH 21 0
BBX 18 18 2 0
BITMAP
001800
003000
007000
004000
3F1F00
7FFF80
7FFF00
FFFE00
FFFE00
FFFE00
FFFE00
7FFF00
7FFF80
7FFFC0
3FFF80
1FFF00
1FFF00
073E00
ENDCHAR
ENDFONT
